<svg t="1577639638732" class="icon" viewBox="0 0 1024 1024" version="1.1" xmlns="http://www.w3.org/2000/svg" p-id="3083" width="200" height="200"><path d="M929.063791 119.216195 113.964588 119.216195c-19.780509 0-35.815717-16.035208-35.815717-35.815717s16.035208-35.815717 35.815717-35.815717l815.100226 0c19.780509 0 35.815717 16.035208 35.815717 35.815717S948.8443 119.216195 929.063791 119.216195z" p-id="3084" fill="#666"></path><path d="M284.574291 325.006142 114.798583 325.006142c-19.780509 0-35.815717-16.035208-35.815717-35.815717s16.035208-35.815717 35.815717-35.815717l169.775708 0c19.780509 0 35.815717 16.035208 35.815717 35.815717S304.354799 325.006142 284.574291 325.006142z" p-id="3085" fill="#666"></path><path d="M264.10612 530.795065 114.798583 530.795065c-19.780509 0-35.815717-16.036231-35.815717-35.815717 0-19.780509 16.035208-35.815717 35.815717-35.815717L264.10612 459.163631c19.780509 0 35.815717 16.035208 35.815717 35.815717C299.921837 514.758834 283.886629 530.795065 264.10612 530.795065z" p-id="3086" fill="#666"></path><path d="M310.918285 736.583988 114.798583 736.583988c-19.780509 0-35.815717-16.035208-35.815717-35.815717s16.035208-35.815717 35.815717-35.815717l196.119703 0c19.780509 0 35.815717 16.035208 35.815717 35.815717S330.698794 736.583988 310.918285 736.583988z" p-id="3087" fill="#666"></path><path d="M615.244432 942.372911 114.798583 942.372911c-19.780509 0-35.815717-16.035208-35.815717-35.815717s16.035208-35.815717 35.815717-35.815717l500.446873 0c19.780509 0 35.815717 16.035208 35.815717 35.815717S635.024941 942.372911 615.244432 942.372911z" p-id="3088" fill="#666"></path><path d="M675.854858 741.376131c-26.853601 5.246491-54.654784 6.244214-82.59309 2.765997-69.191872-8.616238-130.887003-43.660382-173.71953-98.677417-42.833551-55.017034-61.678758-123.423007-53.061496-192.613856 8.615215-69.191872 43.660382-130.887003 98.67844-173.71953 55.019081-42.832528 123.425054-61.678758 192.614879-53.06252 69.191872 8.615215 130.885979 43.659359 173.71953 98.67844l0 0c42.832528 55.018058 61.676711 123.423007 53.061496 192.613856-8.616238 69.191872-43.660382 130.887003-98.67844 173.718507C753.073544 716.615191 715.502857 733.629703 675.854858 741.376131zM588.898391 299.29148c-28.204365 5.510504-55.553247 17.532305-79.737042 36.359093-39.920198 31.079856-65.349357 75.845409-71.599711 126.048811-6.251378 50.204425 7.421017 99.838869 38.500872 139.759067 31.079856 39.920198 75.845409 65.349357 126.049834 71.599711 50.205449 6.250354 99.838869-7.419993 139.758044-38.500872 39.920198-31.078833 65.349357-75.844386 71.599711-126.048811 6.251378-50.204425-7.421017-99.838869-38.499849-139.759067l0 0C729.638809 310.523289 656.803967 286.024316 588.898391 299.29148z" p-id="3089" fill="#666"></path><path d="M928.406828 898.986775c-12.833283 2.5071-26.577309-2.128477-35.158754-13.150508L740.808196 691.49507c-12.150738-15.608489-9.348925-38.112016 6.258541-50.262754 15.609513-12.151761 38.113039-9.347902 50.262754 6.258541l152.439878 194.341197c12.150738 15.608489 9.348925 38.112016-6.258541 50.262754C938.926416 895.6641 933.744393 897.944026 928.406828 898.986775z" p-id="3090" fill="#666"></path></svg>